<?xml version="1.0" encoding="UTF-8"?>
<svg version="1.1" xmlns="http://www.w3.org/2000/svg" width="189" height="293">
<path d="M0 0 C2.86253357 1.34716818 5.34286804 2.87773056 7.87890625 4.765625 C8.62543457 5.31879395 9.37196289 5.87196289 10.14111328 6.44189453 C10.9401709 7.03856934 11.73922852 7.63524414 12.5625 8.25 C14.27993318 9.52345738 15.99738152 10.79689431 17.71484375 12.0703125 C19.47656616 13.38020341 21.23828496 14.69009918 23 16 C28.55667853 20.12280314 34.12273461 24.2323612 39.70654297 28.31835938 C41.21615599 29.42525894 42.72307388 30.53584515 44.22705078 31.65039062 C62.4600437 45.91312973 62.4600437 45.91312973 84.28515625 50.5078125 C94.96138969 48.5108192 103.27811549 42.11935021 112 36 C112.84256348 35.41605469 112.84256348 35.41605469 113.70214844 34.8203125 C121.49479464 29.41716271 129.03677629 23.70497675 136.5625 17.9375 C158.67391717 1 158.67391717 1 162 1 C161.38483579 4.23242469 160.28433901 6.30160079 158.33984375 8.94140625 C157.79787354 9.68374512 157.25590332 10.42608398 156.69750977 11.19091797 C156.11670654 11.97354004 155.53590332 12.75616211 154.9375 13.5625 C154.34187256 14.37605957 153.74624512 15.18961914 153.13256836 16.02783203 C151.42715172 18.35594938 149.71460603 20.67864639 148 23 C141.10145853 32.3945592 134.41363945 41.93078477 127.75195312 51.49414062 C126.53752799 53.23116118 125.31704977 54.96395943 124.09179688 56.69335938 C123.47240234 57.56927734 122.85300781 58.44519531 122.21484375 59.34765625 C121.65531006 60.135354 121.09577637 60.92305176 120.51928711 61.73461914 C114.56193304 70.61751941 113.17399764 78.40991003 114 89 C117.35941257 104.5403042 130.92824853 119.20002538 140.20214844 131.58447266 C145.22034323 138.32673491 150.10231582 145.16997889 155 152 C155.76957031 153.06992188 156.53914062 154.13984375 157.33203125 155.2421875 C157.96496094 156.13164062 158.59789062 157.02109375 159.25 157.9375 C160.03117187 159.03384766 160.03117187 159.03384766 160.828125 160.15234375 C162 162 162 162 163 165 C159.72510964 164.38493066 157.67091405 163.25318554 155.015625 161.26171875 C154.25290283 160.69453125 153.49018066 160.12734375 152.7043457 159.54296875 C151.48944458 158.62451172 151.48944458 158.62451172 150.25 157.6875 C149.41106201 157.06101563 148.57212402 156.43453125 147.70776367 155.7890625 C145.13409388 153.86518664 142.56684977 151.93296158 140 150 C138.49134 148.87048632 136.98225023 147.74154637 135.47265625 146.61328125 C132.85025413 144.65188544 130.23004726 142.6876588 127.61328125 140.71875 C127.01749268 140.27241211 126.4217041 139.82607422 125.80786133 139.36621094 C124.59173873 138.44718027 123.38329826 137.51790408 122.18237305 136.57910156 C116.46613405 132.1599724 110.3817798 128.45792652 104.1875 124.75 C102.13904639 123.51608395 100.09085706 122.28172903 98.04296875 121.046875 C97.14602295 120.50901367 96.24907715 119.97115234 95.32495117 119.41699219 C93.52406724 118.31940421 91.75479432 117.16986288 90 116 C77.18483601 113.13162394 67.77867374 118.10321948 57.08300781 124.66748047 C51.76330485 128.07054409 46.72675534 131.85867001 41.71240234 135.69189453 C39.17800117 137.62792554 36.6184363 139.53003337 34.0625 141.4375 C31.40263793 143.4368835 28.74427842 145.43822663 26.08837891 147.44287109 C22.01362599 150.51773257 17.93234032 153.58340506 13.83740234 156.63134766 C12.17632673 157.86865697 10.5195442 159.11172459 8.86328125 160.35546875 C7.53876953 161.32419922 7.53876953 161.32419922 6.1875 162.3125 C5.06408203 163.14201172 5.06408203 163.14201172 3.91796875 163.98828125 C3.28503906 164.32214844 2.65210938 164.65601563 2 165 C1.01 164.67 0.02 164.34 -1 164 C4.16475337 156.68707487 9.39744556 149.44247085 14.8125 142.3125 C19.84616584 135.66558418 24.60194702 128.85601436 29.26464844 121.94458008 C32.17378965 117.63762555 35.1523118 113.41205929 38.26342773 109.24902344 C45.02812959 100.141276 49.745848 90.54434697 48.734375 78.95703125 C46.31315495 63.65146163 36.11865012 51.86090852 26.94140625 39.87109375 C24.19579961 36.27972225 21.54940225 32.62685763 18.9375 28.9375 C15.35511628 23.88480541 11.72815996 18.86766168 8.0625 13.875 C7.37111938 12.93321899 7.37111938 12.93321899 6.66577148 11.97241211 C4.87374624 9.53513828 3.08818944 7.1088618 1.18359375 4.7578125 C0 3 0 3 0 0 Z M54 54 C56.15572211 58.79861307 59.3197841 63.01082713 62.27929688 67.3359375 C69.91572683 78.62556271 69.91572683 78.62556271 69 86 C67.73476249 88.51899895 66.53340123 90.59660518 64.9375 92.875 C64.53281494 93.47779785 64.12812988 94.0805957 63.71118164 94.70166016 C60.3608442 99.63532664 56.7892361 104.3944333 53 109 C53.33 109.66 53.66 110.32 54 111 C54.75023437 110.41992188 55.50046875 109.83984375 56.2734375 109.2421875 C74.9339934 95 74.9339934 95 82 95 C88.54628959 96.23406957 92.6379235 99.41841704 97.75 103.5625 C99.2419898 104.75481663 100.73666965 105.94377706 102.234375 107.12890625 C103.21229004 107.91890015 103.21229004 107.91890015 104.20996094 108.72485352 C106.08176689 110.1899577 106.08176689 110.1899577 109 111 C107.38132063 107.51361366 105.34138699 104.42935134 103.1875 101.25 C102.47980469 100.1878125 101.77210937 99.125625 101.04296875 98.03125 C99.839053 96.24494288 98.61903071 94.469007 97.36328125 92.71875 C94.77440148 88.98008122 93.10554229 85.85790312 93.46484375 81.11328125 C95.84076448 71.73099574 104.08482647 63.45826228 110 56 C109.505 55.01 109.505 55.01 109 54 C108.51120361 54.34780518 108.02240723 54.69561035 107.51879883 55.05395508 C105.28470334 56.64202793 103.04862346 58.22728411 100.8125 59.8125 C100.04357422 60.35970703 99.27464844 60.90691406 98.48242188 61.47070312 C85.48256124 70.67661302 85.48256124 70.67661302 77.6875 69.5 C73.60464965 67.83917952 70.80343713 65.72676175 67.41796875 62.953125 C64.84777957 60.87704327 62.20407057 58.96036408 59.5 57.0625 C58.6646875 56.47597656 57.829375 55.88945313 56.96875 55.28515625 C55.2522844 53.90889625 55.2522844 53.90889625 54 54 Z " fill="#1D75B9" transform="translate(13,38)"/>
<path d="M0 0 C1.67299959 0.65061095 3.33859237 1.32033324 5 2 C5.66 2.268125 6.32 2.53625 7 2.8125 C9 4 9 4 11.375 6.625 C13.82382358 9.31663113 13.82382358 9.31663113 17.3125 9.3125 C18.199375 9.209375 19.08625 9.10625 20 9 C20 9.66 20 10.32 20 11 C20.66 11 21.32 11 22 11 C22 11.66 22 12.32 22 13 C22.66 12.67 23.32 12.34 24 12 C23.67 10.68 23.34 9.36 23 8 C28.37862254 12.88965685 33.68244058 19.04732175 36 26 C32.68105038 25.38266144 30.60258304 24.20453812 27.91015625 22.19140625 C27.1313208 21.61350342 26.35248535 21.03560059 25.55004883 20.44018555 C24.72915771 19.82054932 23.9082666 19.20091309 23.0625 18.5625 C22.22162842 17.93448486 21.38075684 17.30646973 20.5144043 16.65942383 C18.00399788 14.78026821 15.50111107 12.89150315 13 11 C12.28779297 10.46407227 11.57558594 9.92814453 10.84179688 9.37597656 C2.96256256 3.44132175 2.96256256 3.44132175 0 1 C0 0.67 0 0.34 0 0 Z " fill="#2770AA" transform="translate(140,177)"/>
<path d="M0 0 C4.92479571 2.30260136 9.08199909 5.59292957 13.4375 8.8125 C14.28376953 9.42931641 15.13003906 10.04613281 16.00195312 10.68164062 C20.33493932 13.87454588 24.33717201 17.05136614 28 21 C25.36 20.34 22.72 19.68 20 19 C19.67 17.68 19.34 16.36 19 15 C18.34 15 17.68 15 17 15 C16.34 17.31 15.68 19.62 15 22 C11.24089939 18.50045634 8.27884769 14.55943577 5.25 10.4375 C4.74339844 9.76525391 4.23679687 9.09300781 3.71484375 8.40039062 C3.23660156 7.75134766 2.75835937 7.10230469 2.265625 6.43359375 C1.83024414 5.84634521 1.39486328 5.25909668 0.94628906 4.65405273 C0 3 0 3 0 0 Z " fill="#2371AD" transform="translate(13,38)"/>
<path d="M0 0 C0.99 0 1.98 0 3 0 C3.33 1.65 3.66 3.3 4 5 C3.34 5 2.68 5 2 5 C1.34 6.32 0.68 7.64 0 9 C-1.32 8.67 -2.64 8.34 -4 8 C-3.7215625 9.0828125 -3.7215625 9.0828125 -3.4375 10.1875 C-2.98004693 13.12826973 -3.26483643 15.14103058 -4 18 C-4.99 17.67 -5.98 17.34 -7 17 C-8.96822886 17 -10.50528545 18.84280164 -12 20 C-11.67 20.99 -11.34 21.98 -11 23 C-11.99 23.66 -12.98 24.32 -14 25 C-14.90888062 27.46048456 -14.90888062 27.46048456 -15 30 C-14.34 30.66 -13.68 31.32 -13 32 C-12.40165446 33.52056618 -11.86493344 35.06612088 -11.375 36.625 C-11.11460938 37.44226563 -10.85421875 38.25953125 -10.5859375 39.1015625 C-10.39257812 39.72804687 -10.19921875 40.35453125 -10 41 C-14.45369982 36.78070544 -16.65981724 34.46632504 -17.5 28.375 C-17.20312511 19.87500317 -10.25818992 12.8412465 -5.3125 6.375 C-4.83707764 5.7464209 -4.36165527 5.1178418 -3.87182617 4.47021484 C-2.65323708 2.92069075 -1.33299652 1.45227565 0 0 Z " fill="#2173B2" transform="translate(123,93)"/>
<path d="M0 0 C1.99609375 0.26953125 1.99609375 0.26953125 4.4375 0.8125 C5.64212891 1.06966797 5.64212891 1.06966797 6.87109375 1.33203125 C9 2 9 2 11 4 C11.4140625 6.6015625 11.4140625 6.6015625 11.625 9.625 C11.69976562 10.62789062 11.77453125 11.63078125 11.8515625 12.6640625 C11.92503906 13.82035156 11.92503906 13.82035156 12 15 C3.28842694 14.27403558 3.28842694 14.27403558 0 11 C-0.64453125 8.5546875 -0.64453125 8.5546875 -0.8125 5.875 C-0.88082031 4.98554687 -0.94914062 4.09609375 -1.01953125 3.1796875 C-1 1 -1 1 0 0 Z " fill="#2871A7" transform="translate(89,113)"/>
<path d="M0 0 C4.875 4.625 4.875 4.625 6 8 C3.36 8.66 0.72 9.32 -2 10 C-2.02696365 11.79158489 -2.04637917 13.58328473 -2.0625 15.375 C-2.07410156 16.37273437 -2.08570313 17.37046875 -2.09765625 18.3984375 C-2.18006602 20.98432453 -2.18006602 20.98432453 -1 23 C-0.58086737 28.96532949 -0.59202828 34.43156539 -3 40 C-4 37 -4 37 -3.375 33.6875 C-2.15869955 25.28255203 -5.03852124 16.32205907 -9 9 C-6.09399739 7.74335022 -4.20395416 7 -1 7 C-0.67 4.69 -0.34 2.38 0 0 Z " fill="#2872AF" transform="translate(65,91)"/>
<path d="M0 0 C-0.60110283 4.00735217 -2.66602028 6.55469371 -5.0625 9.75 C-5.79597656 10.73484375 -6.52945313 11.7196875 -7.28515625 12.734375 C-7.85105469 13.48203125 -8.41695312 14.2296875 -9 15 C-9.33 14.01 -9.66 13.02 -10 12 C-9.67 11.34 -9.34 10.68 -9 10 C-8.34 10 -7.68 10 -7 10 C-7.33 9.34 -7.66 8.68 -8 8 C-8.66 8 -9.32 8 -10 8 C-10.61875 8.639375 -11.2375 9.27875 -11.875 9.9375 C-14.03520783 12.03417231 -15.08776721 12.58396674 -18 13 C-6.21875 0 -6.21875 0 0 0 Z " fill="#2870AA" transform="translate(175,39)"/>
<path d="M0 0 C3.4375 1.1875 3.4375 1.1875 7 3 C8.32700594 6.31751485 8.13527092 7.59418724 7 11 C4.39376858 10.64780657 2.39210885 10.23526531 0.125 8.875 C-1.67626472 5.87289213 -0.68453372 3.29820792 0 0 Z " fill="#1975BB" transform="translate(92,115)"/>
<path d="M0 0 C1.32 0.66 2.64 1.32 4 2 C2.50592885 6.7312253 2.50592885 6.7312253 0 8.0625 C-0.66 8.371875 -1.32 8.68125 -2 9 C-2.68486725 10.32407669 -3.34870203 11.65909241 -4 13 C-6.4375 15.75 -6.4375 15.75 -9 18 C-9.99 18 -10.98 18 -12 18 C-11.30132812 17.03578125 -10.60265625 16.0715625 -9.8828125 15.078125 C-8.96339041 13.80219231 -8.04412795 12.52614459 -7.125 11.25 C-6.66480469 10.61578125 -6.20460938 9.9815625 -5.73046875 9.328125 C-3.56337959 6.31304443 -1.50142178 3.41702887 0 0 Z " fill="#2973AB" transform="translate(59,135)"/>
<path d="M0 0 C1 3 1 3 0 5.0625 C-0.33 5.701875 -0.66 6.34125 -1 7 C-0.67 7.66 -0.34 8.32 0 9 C-0.99 9.66 -1.98 10.32 -3 11 C-3.90888062 13.46048456 -3.90888062 13.46048456 -4 16 C-3.34 16.66 -2.68 17.32 -2 18 C-1.40165446 19.52056618 -0.86493344 21.06612088 -0.375 22.625 C-0.11460938 23.44226563 0.14578125 24.25953125 0.4140625 25.1015625 C0.60742188 25.72804687 0.80078125 26.35453125 1 27 C-3.45369982 22.78070544 -5.65981724 20.46632504 -6.5 14.375 C-6.4151566 8.75412444 -3.08877208 4.48607373 0 0 Z " fill="#2972AC" transform="translate(112,107)"/>
<path d="M0 0 C3.03852705 1.40976705 5.5939595 3.08870228 8.25 5.125 C8.95640625 5.66382813 9.6628125 6.20265625 10.390625 6.7578125 C10.92171875 7.16773438 11.4528125 7.57765625 12 8 C11.01 8.33 10.02 8.66 9 9 C7.79117904 11.00016466 7.79117904 11.00016466 7 13 C5.82479354 11.40207898 4.66008753 9.79643092 3.5 8.1875 C2.8503125 7.29417969 2.200625 6.40085937 1.53125 5.48046875 C0 3 0 3 0 0 Z " fill="#2269AA" transform="translate(13,38)"/>
<path d="M0 0 C0.99 0 1.98 0 3 0 C4.12880057 3.31114834 5.21302675 6.58978257 6 10 C1.40693504 8.5140084 -1.43569245 6.14985318 -5 3 C-4.360625 2.690625 -3.72125 2.38125 -3.0625 2.0625 C-1.06389179 1.1654837 -1.06389179 1.1654837 0 0 Z " fill="#1E6FB7" transform="translate(83,97)"/>
<path d="M0 0 C2.97 0.495 2.97 0.495 6 1 C4.45158425 4.34708051 2.50894136 7.24667512 0.375 10.25 C-0.25664062 11.14203125 -0.88828125 12.0340625 -1.5390625 12.953125 C-2.02117187 13.62859375 -2.50328125 14.3040625 -3 15 C-3.33 14.01 -3.66 13.02 -4 12 C-2.71937515 10.2925002 -1.38232443 8.62626404 0 7 C0.33 6.01 0.66 5.02 1 4 C0.34 3.67 -0.32 3.34 -1 3 C-0.67 2.01 -0.34 1.02 0 0 Z " fill="#2571AD" transform="translate(156,57)"/>
<path d="M0 0 C0.33 1.32 0.66 2.64 1 4 C0.01 4.33 -0.98 4.66 -2 5 C-2 5.66 -2 6.32 -2 7 C-0.68 6.67 0.64 6.34 2 6 C-1.2708722 9.64468616 -3.16454967 11.29296777 -8 12 C-6.85573734 10.186508 -5.70954608 8.37423275 -4.5625 6.5625 C-3.60537109 5.04849609 -3.60537109 5.04849609 -2.62890625 3.50390625 C-1 1 -1 1 0 0 Z " fill="#2E6E9F" transform="translate(20,191)"/>
<path d="M0 0 C4.20240011 3.71750779 6.99782679 8.31660979 10 13 C9.67 13.66 9.34 14.32 9 15 C8.7525 14.38125 8.505 13.7625 8.25 13.125 C6.76045906 10.5927804 5.62418952 10.19281342 3 9 C1.1875 7.625 1.1875 7.625 0 6 C0.3125 3.8125 0.3125 3.8125 1 2 C0.01 2.33 -0.98 2.66 -2 3 C-2 2.34 -2 1.68 -2 1 C-1.34 0.67 -0.68 0.34 0 0 Z " fill="#2A75A8" transform="translate(132,141)"/>
<path d="M0 0 C4.62 2.31 9.24 4.62 14 7 C9.23374833 8.19156292 8.12120649 7.3415946 4 5 C3.67 5.66 3.34 6.32 3 7 C3 6.34 3 5.68 3 5 C1.68 4.67 0.36 4.34 -1 4 C-0.67 2.68 -0.34 1.36 0 0 Z " fill="#2C72AA" transform="translate(71,80)"/>
<path d="M0 0 C3.14605485 1.43002493 3.75452774 3.86376518 5.0625 6.9375 C0.81427626 6.46547514 -1.13739709 3.97094482 -3.9375 0.9375 C-1.9375 -0.0625 -1.9375 -0.0625 0 0 Z " fill="#2D70A1" transform="translate(170.9375,196.0625)"/>
<path d="M0 0 C3.25516428 3.16474305 6.32008793 6.32752791 9 10 C9 10.66 9 11.32 9 12 C7.02 11.34 5.04 10.68 3 10 C3.33 9.01 3.66 8.02 4 7 C3.34 7 2.68 7 2 7 C1.34 4.69 0.68 2.38 0 0 Z " fill="#2C73A8" transform="translate(144,159)"/>
<path d="M0 0 C6.15234375 0.5859375 6.15234375 0.5859375 8 1 C8.33 1.66 8.66 2.32 9 3 C8.34 3 7.68 3 7 3 C6.67 4.65 6.34 6.3 6 8 C1.125 3.375 1.125 3.375 0 0 Z " fill="#2471AD" transform="translate(28,60)"/>
<path d="M0 0 C0.33 0.66 0.66 1.32 1 2 C0.22265625 3.83984375 0.22265625 3.83984375 -0.9375 5.9375 C-2.4548846 8.68936698 -3 9.77788463 -3 13 C-3.99 12.67 -4.98 12.34 -6 12 C-6.99 12.495 -6.99 12.495 -8 13 C-6.53181332 9.89257577 -4.79975 7.09528261 -2.875 4.25 C-2.33617187 3.45078125 -1.79734375 2.6515625 -1.2421875 1.828125 C-0.62730469 0.92320312 -0.62730469 0.92320312 0 0 Z " fill="#2D71A5" transform="translate(40,163)"/>
<path d="M0 0 C0.66 0.33 1.32 0.66 2 1 C-1.3 3.64 -4.6 6.28 -8 9 C-8.66 8.67 -9.32 8.34 -10 8 C-9.67 7.01 -9.34 6.02 -9 5 C-8.34 5 -7.68 5 -7 5 C-7 4.34 -7 3.68 -7 3 C-4.69631264 1.93347808 -2.35981813 0.93578995 0 0 Z " fill="#2C6FA4" transform="translate(36,185)"/>
<path d="M0 0 C0.33 0 0.66 0 1 0 C1 2.31 1 4.62 1 7 C1.99 7.33 2.98 7.66 4 8 C4.94921875 10.06640625 4.94921875 10.06640625 5.6875 12.5625 C5.93886719 13.38878906 6.19023438 14.21507812 6.44921875 15.06640625 C6.63097656 15.70449219 6.81273438 16.34257812 7 17 C0.13973659 10.50080308 0.13973659 10.50080308 -0.11328125 5.97265625 C-0.12377975 3.98144045 -0.06633794 1.99013815 0 0 Z " fill="#3273A4" transform="translate(106,117)"/>
<path d="M0 0 C3.83663072 1.34929464 6.65172569 3.07751025 9.8125 5.625 C10.99779297 6.57246094 10.99779297 6.57246094 12.20703125 7.5390625 C12.79871094 8.02117187 13.39039063 8.50328125 14 9 C13.01 9.495 13.01 9.495 12 10 C9.875 9.0625 9.875 9.0625 8 8 C8 7.34 8 6.68 8 6 C6.68 5.67 5.36 5.34 4 5 C4 4.34 4 3.68 4 3 C2.68 2.67 1.36 2.34 0 2 C0 1.34 0 0.68 0 0 Z " fill="#2E6FA5" transform="translate(45,62)"/>
<path d="M0 0 C1.48285242 0.95262034 2.96118201 1.91228405 4.4375 2.875 C5.67306641 3.67550781 5.67306641 3.67550781 6.93359375 4.4921875 C9 6 9 6 10 8 C4.5388601 7.11917098 4.5388601 7.11917098 2 6 C0.5 2.875 0.5 2.875 0 0 Z " fill="#2972A9" transform="translate(31,51)"/>
<path d="M0 0 C1.485 0.99 1.485 0.99 3 2 C3 2.66 3 3.32 3 4 C3.66 4 4.32 4 5 4 C8.22265625 9.2734375 8.22265625 9.2734375 9 11 C8.67 11.66 8.34 12.32 8 13 C6.66094733 11.2126038 5.32890934 9.41995047 4 7.625 C3.2575 6.62726563 2.515 5.62953125 1.75 4.6015625 C0 2 0 2 0 0 Z " fill="#2C6FA3" transform="translate(113,134)"/>
<path d="M0 0 C0.99 0.66 1.98 1.32 3 2 C1.35 4.64 -0.3 7.28 -2 10 C-3 7 -3 7 -2 4 C-2.66 3.67 -3.32 3.34 -4 3 C-2.68 2.01 -1.36 1.02 0 0 Z " fill="#2A72AA" transform="translate(142,81)"/>
<path d="M0 0 C-0.928125 1.1446875 -0.928125 1.1446875 -1.875 2.3125 C-4.05597052 4.99625809 -4.05597052 4.99625809 -6 8 C-5.979375 7.05125 -5.95875 6.1025 -5.9375 5.125 C-5.77448174 2.09333717 -5.77448174 2.09333717 -7 0 C-3.86650268 -1.04449911 -3.01031744 -0.93423645 0 0 Z " fill="#2871AC" transform="translate(71,142)"/>
<path d="M0 0 C3.16115776 1.36983503 3.9927092 1.9890638 6 5 C4.02 5.33 2.04 5.66 0 6 C0 4.02 0 2.04 0 0 Z " fill="#1D6DB4" transform="translate(166,191)"/>
<path d="M0 0 C1.32 0.33 2.64 0.66 4 1 C4 1.66 4 2.32 4 3 C4.66 3 5.32 3 6 3 C5.67 4.32 5.34 5.64 5 7 C4.34 7 3.68 7 3 7 C3 6.01 3 5.02 3 4 C2.01 4.33 1.02 4.66 0 5 C0 3.35 0 1.7 0 0 Z " fill="#1875BC" transform="translate(21,46)"/>
<path d="M0 0 C1.74627478 2.61941217 2.38722388 4.03824877 3 7 C-0.65316671 5.75023244 -1.78065836 5.32901247 -4 2 C-2.68 1.34 -1.36 0.68 0 0 Z " fill="#2B71A8" transform="translate(86,100)"/>
<path d="M0 0 C3.36591866 1.44253657 5.51047079 3.33264727 8 6 C6.68 5.67 5.36 5.34 4 5 C3.67 5.66 3.34 6.32 3 7 C0 3.375 0 3.375 0 0 Z " fill="#306CA9" transform="translate(13,38)"/>
<path d="M0 0 C0.66 0.33 1.32 0.66 2 1 C-0.31 4.3 -2.62 7.6 -5 11 C-5 7.30581799 -3.71820705 5.22163822 -2 2 C-1.34 2 -0.68 2 0 2 C0 1.34 0 0.68 0 0 Z " fill="#2E70A5" transform="translate(78,128)"/>
<path d="M0 0 C2 3 2 3 1.625 5.1875 C1.41875 5.785625 1.2125 6.38375 1 7 C0.01 7 -0.98 7 -2 7 C-2.6875 5.1875 -2.6875 5.1875 -3 3 C-1.5625 1.25 -1.5625 1.25 0 0 Z " fill="#1976C0" transform="translate(155,58)"/>
<path d="M0 0 C0.33 1.32 0.66 2.64 1 4 C0.34 4 -0.32 4 -1 4 C-2.62514468 5.45833358 -2.62514468 5.45833358 -4 7 C-4.99 6.34 -5.98 5.68 -7 5 C-4.69 3.35 -2.38 1.7 0 0 Z " fill="#2771A9" transform="translate(155,52)"/>
<path d="M0 0 C0.33 3.63 0.66 7.26 1 11 C0.34 10.67 -0.32 10.34 -1 10 C-1.6328125 7.93359375 -1.6328125 7.93359375 -2.125 5.4375 C-2.29257813 4.61121094 -2.46015625 3.78492188 -2.6328125 2.93359375 C-2.75398438 2.29550781 -2.87515625 1.65742188 -3 1 C-1 0 -1 0 0 0 Z " fill="#2373B2" transform="translate(123,139)"/>
<path d="M0 0 C0.99 0.495 0.99 0.495 2 1 C2.4140625 3.06640625 2.4140625 3.06640625 2.625 5.5625 C2.69976562 6.38878906 2.77453125 7.21507813 2.8515625 8.06640625 C2.92503906 9.02353516 2.92503906 9.02353516 3 10 C1.51171875 8.73046875 1.51171875 8.73046875 0 7 C-0.1875 3.3125 -0.1875 3.3125 0 0 Z " fill="#2873A8" transform="translate(80,113)"/>
<path d="M0 0 C0.66 0.33 1.32 0.66 2 1 C-0.83430453 4.2542015 -2.68607774 5.5206753 -7 6 C-4.74259377 3.66475218 -2.7194239 1.81294927 0 0 Z " fill="#2D72A4" transform="translate(119,78)"/>
<path d="M0 0 C2.88437779 1.29299694 4.87219421 2.65941363 7 5 C5.35 5 3.7 5 2 5 C1.34 3.35 0.68 1.7 0 0 Z " fill="#2A72A9" transform="translate(59,72)"/>
<path d="M0 0 C2.64 0 5.28 0 8 0 C8 0.33 8 0.66 8 1 C5.36 1 2.72 1 0 1 C0 0.67 0 0.34 0 0 Z " fill="#507394" transform="translate(30,79)"/>
<path d="M0 0 C3 1 3 1 3 1 Z " fill="#22272C" transform="translate(175,205)"/>
<path d="" fill="#34B1CB" transform="translate(0,0)"/>
<path d="" fill="#484848" transform="translate(0,0)"/>
<path d="" fill="#000000" transform="translate(0,0)"/>
<path d="" fill="#3D3D3D" transform="translate(0,0)"/>
<path d="" fill="#7F7F7F" transform="translate(0,0)"/>
<path d="" fill="#3FA8D0" transform="translate(0,0)"/>
<path d="" fill="#459FC9" transform="translate(0,0)"/>
<path d="" fill="#379EBA" transform="translate(0,0)"/>
<path d="" fill="#7F7F7F" transform="translate(0,0)"/>
</svg>
